<?xml version="1.0" encoding="UTF-8" ?>
<!DOCTYPE svg PUBLIC "-//W3C//DTD SVG 1.1//EN" "http://www.w3.org/Graphics/SVG/1.1/DTD/svg11.dtd">
<svg width="64pt" height="64pt" viewBox="0 0 64 64" version="1.1" xmlns="http://www.w3.org/2000/svg">
<g id="#6386a6ff">
<path fill="#6386a6" opacity="1.00" d=" M 12.48 3.65 C 24.31 2.95 36.22 3.54 48.08 3.35 C 54.50 2.85 60.77 8.41 60.66 14.93 C 60.72 26.30 60.64 37.67 60.61 49.04 C 60.77 55.16 55.14 60.83 49.00 60.63 C 37.63 60.66 26.26 60.67 14.89 60.62 C 8.81 60.76 3.24 55.15 3.38 49.06 C 3.36 37.66 3.27 26.26 3.35 14.86 C 3.29 9.59 7.45 4.86 12.48 3.65 M 7.10 11.78 L 6.75 11.93 C 5.01 15.43 6.13 19.37 6.33 23.06 C 6.20 28.36 12.36 31.08 16.94 30.53 C 19.90 30.86 23.74 29.20 25.91 31.97 C 22.62 32.11 19.34 32.19 16.06 32.16 C 21.37 38.50 26.69 44.84 32.00 51.19 C 37.31 44.84 42.63 38.50 47.94 32.16 C 44.65 32.20 41.36 32.10 38.07 31.97 C 40.31 29.21 44.08 30.83 47.10 30.53 C 51.68 31.04 57.90 28.35 57.68 23.01 C 57.92 19.29 58.92 15.37 57.26 11.83 L 56.87 11.68 C 55.00 8.63 51.87 6.08 48.12 6.21 C 37.40 6.08 26.66 6.08 15.93 6.20 C 12.14 6.07 8.93 8.64 7.10 11.78 Z" />
</g>
<g id="#ffffffff">
<path fill="#ffffff" opacity="1.00" d=" M 7.10 11.78 C 8.93 8.64 12.14 6.07 15.93 6.20 C 26.66 6.08 37.40 6.08 48.12 6.21 C 51.87 6.08 55.00 8.63 56.87 11.68 C 53.76 10.71 51.53 7.73 48.06 7.80 C 37.71 7.50 27.33 7.68 16.98 7.71 C 13.09 7.39 10.42 10.42 7.10 11.78 Z" />
<path fill="#ffffff" opacity="1.00" d=" M 25.62 13.03 C 29.87 13.00 34.13 13.00 38.38 13.03 C 38.33 19.36 38.32 25.70 37.98 32.03 L 38.07 31.97 C 41.36 32.10 44.65 32.20 47.94 32.16 C 42.63 38.50 37.31 44.84 32.00 51.19 C 26.69 44.84 21.37 38.50 16.06 32.16 C 19.34 32.19 22.62 32.11 25.91 31.97 L 26.01 32.06 C 25.68 25.72 25.66 19.37 25.62 13.03 Z" />
</g>
<g id="#99b6d1ff">
<path fill="#99b6d1" opacity="1.00" d=" M 7.10 11.78 C 10.42 10.42 13.09 7.39 16.98 7.71 C 27.33 7.68 37.71 7.50 48.06 7.80 C 51.53 7.73 53.76 10.71 56.87 11.68 L 57.26 11.83 C 58.92 15.37 57.92 19.29 57.68 23.01 C 57.90 28.35 51.68 31.04 47.10 30.53 C 44.08 30.83 40.31 29.21 38.07 31.97 L 37.98 32.03 C 38.32 25.70 38.33 19.36 38.38 13.03 C 34.13 13.00 29.87 13.00 25.62 13.03 C 25.66 19.37 25.68 25.72 26.01 32.06 L 25.91 31.97 C 23.74 29.20 19.90 30.86 16.94 30.53 C 12.36 31.08 6.20 28.36 6.33 23.06 C 6.13 19.37 5.01 15.43 6.75 11.93 L 7.10 11.78 Z" />
</g>
</svg>
