<svg xmlns="http://www.w3.org/2000/svg" width="352" height="448"
    viewBox="0 0 352 448" id="__bitbucket">
  <path fill="currentColor" d="M203.75 214.75q2 15.75-12.625 25.25t-27.875
        1.5q-9.75-4.25-13.375-14.5t-0.125-20.5 13-14.5q9-4.5 18.125-3t16 8.875
        6.875 16.875zM231.5 209.5q-3.5-26.75-28.25-41t-49.25-3.25q-15.75
        7-25.125 22.125t-8.625 32.375q1 22.75 19.375 38.75t41.375 14q22.75-2
        38-21t12.5-42zM291.25
        74q-5-6.75-14-11.125t-14.5-5.5-17.75-3.125q-72.75-11.75-141.5 0.5-10.75
        1.75-16.5 3t-13.75 5.5-12.5 10.75q7.5 7 19 11.375t18.375 5.5 21.875
        2.875q57 7.25 112 0.25 15.75-2 22.375-3t18.125-5.375 18.75-11.625zM305.5
        332.75q-2 6.5-3.875 19.125t-3.5 21-7.125 17.5-14.5 14.125q-21.5
        12-47.375 17.875t-50.5 5.5-50.375-4.625q-11.5-2-20.375-4.5t-19.125-6.75-18.25-10.875-13-15.375q-6.25-24-14.25-73l1.5-4
        4.5-2.25q55.75 37 126.625 37t126.875-37q5.25 1.5 6 5.75t-1.25 11.25-2
        9.25zM350.75 92.5q-6.5 41.75-27.75 163.75-1.25 7.5-6.75 14t-10.875
        10-13.625 7.75q-63 31.5-152.5
        22-62-6.75-98.5-34.75-3.75-3-6.375-6.625t-4.25-8.75-2.25-8.5-1.5-9.875-1.375-8.75q-2.25-12.5-6.625-37.5t-7-40.375-5.875-36.875-5.5-39.5q0.75-6.5
        4.375-12.125t7.875-9.375 11.25-7.5 11.5-5.625 12-4.625q31.25-11.5
        78.25-16 94.75-9.25 169 12.5 38.75 11.5 53.75 30.5 4 5 4.125
        12.75t-1.375 13.5z" />
</svg>
