<svg xmlns="http://www.w3.org/2000/svg" width="500" height="500"
    viewBox="0 0 500 500" id="__gitlab">
  <g transform="translate(156.197863, 1.160267)">
  	<path fill="currentColor"
        d="M93.667,473.347L93.667,473.347l90.684-279.097H2.983L93.667,
          473.347L93.667,473.347z" />
  </g>
  <g transform="translate(28.531199, 1.160800)" opacity="0.7">
  	<path fill="currentColor"
        d="M221.333,473.345L130.649,194.25H3.557L221.333,473.345L221.333,
          473.345z" />
  </g>
  <g transform="translate(0.088533, 0.255867)" opacity="0.5">
  	<path fill="currentColor"
        d="M32,195.155L32,195.155L4.441,279.97c-2.513,7.735,0.24,16.21,6.821,
          20.99l238.514,173.29 L32,195.155L32,195.155z" />
  </g>
  <g transform="translate(29.421866, 280.255593)">
  	<path fill="currentColor"
        d="M2.667-84.844h127.092L75.14-252.942c-2.811-8.649-15.047-8.649-17.856,
          0L2.667-84.844 L2.667-84.844z" />
  </g>
  <g transform="translate(247.197860, 1.160800)" opacity="0.7">
  	<path fill="currentColor"
        d="M2.667,473.345L93.351,194.25h127.092L2.667,473.345L2.667,
          473.345z" />
  </g>
  <g transform="translate(246.307061, 0.255867)" opacity="0.5">
  	<path fill="currentColor"
        d="M221.334,195.155L221.334,195.155l27.559,84.815c2.514,7.735-0.24,
          16.21-6.821,20.99 L3.557,474.25L221.334,195.155L221.334,195.155z" />
  </g>
  <g transform="translate(336.973725, 280.255593)">
  	<path fill="currentColor"
        d="M130.667-84.844H3.575l54.618-168.098c2.811-8.649,15.047-8.649,
          17.856,0L130.667-84.844 L130.667-84.844z" />
  </g>
</svg>
